<svg width="134" height="122" viewBox="0 0 134 122" fill="none" xmlns="http://www.w3.org/2000/svg">
<path d="M66.9999 114.333C70.6818 114.333 73.6666 111.349 73.6666 107.667C73.6666 103.985 70.6818 101 66.9999 101C63.318 101 60.3333 103.985 60.3333 107.667C60.3333 111.349 63.318 114.333 66.9999 114.333Z" fill="#C7C7C7"/>
<path d="M69.9334 54.333L57.2667 41.733L40.8667 25.4664L30.5334 15.133L18.4001 2.93302C17.7785 2.31143 17.0405 1.81836 16.2284 1.48196C15.4162 1.14556 14.5458 0.972412 13.6667 0.972412C12.7877 0.972412 11.9172 1.14556 11.1051 1.48196C10.2929 1.81836 9.55499 2.31143 8.9334 2.93302C7.67804 4.18838 6.97279 5.89101 6.97279 7.66636C6.97279 9.4417 7.67804 11.1443 8.9334 12.3997L18.1334 21.533L27.8667 31.2664L42.7334 46.1997L53.0667 56.4664L71.3334 74.733L89.9334 93.3997L115.6 119.066C116.22 119.691 116.957 120.187 117.77 120.526C118.582 120.864 119.453 121.038 120.333 121.038C121.213 121.038 122.085 120.864 122.897 120.526C123.71 120.187 124.447 119.691 125.067 119.066C125.692 118.447 126.188 117.709 126.526 116.897C126.864 116.084 127.039 115.213 127.039 114.333C127.039 113.453 126.864 112.582 126.526 111.769C126.188 110.957 125.692 110.219 125.067 109.6L69.9334 54.333ZM131.8 33.8664C114.436 17.0275 91.1878 7.62762 67.0001 7.66636C56.9365 7.69364 46.9426 9.33678 37.4001 12.533L48.2001 23.333C61.2787 20.0651 74.9747 20.1867 87.9933 23.6863C101.012 27.1859 112.923 33.9479 122.6 43.333C123.836 44.5242 125.484 45.1929 127.2 45.1997C128.098 45.1963 128.986 45.0114 129.811 44.6563C130.636 44.3012 131.38 43.783 132 43.133C133.175 41.8642 133.811 40.1883 133.774 38.4593C133.737 36.7302 133.029 35.0833 131.8 33.8664ZM12.4667 25.333C8.84958 27.9344 5.41897 30.7858 2.20006 33.8664C1.07498 35.1174 0.464541 36.7476 0.491194 38.4299C0.517847 40.1122 1.17962 41.7222 2.34377 42.937C3.50792 44.1517 5.08833 44.8814 6.76799 44.9796C8.44765 45.0778 10.1023 44.5372 11.4001 43.4664C14.7247 40.3246 18.2913 37.449 22.0667 34.8664L12.4667 25.333ZM100.333 68.5997C100.951 69.2296 101.687 69.7308 102.5 70.0741C103.312 70.4174 104.185 70.596 105.067 70.5997C106.37 70.5947 107.642 70.2082 108.728 69.4878C109.813 68.7673 110.664 67.7446 111.175 66.5461C111.685 65.3475 111.834 64.0256 111.601 62.7436C111.369 61.4617 110.766 60.276 109.867 59.333C104.306 53.5714 97.649 48.9811 90.2869 45.8325C82.9249 42.6838 75.0071 41.0406 67.0001 40.9997H65.9334L81.6001 56.6664C88.7139 59.0785 95.1404 63.1722 100.333 68.5997ZM36.5334 49.3997C31.8748 52.1131 27.6125 55.4556 23.8667 59.333C22.6379 60.6326 21.9756 62.3671 22.0256 64.1549C22.0757 65.9428 22.8338 67.6375 24.1334 68.8664C25.433 70.0952 27.1674 70.7575 28.9553 70.7075C30.7431 70.6574 32.4379 69.8993 33.6667 68.5997C37.5506 64.7385 42.0584 61.5605 47.0001 59.1997L36.5334 49.3997ZM43.8667 83.6664C42.5937 84.8952 41.8609 86.5794 41.8297 88.3485C41.8142 89.2245 41.9714 90.0949 42.2923 90.9101C42.6133 91.7253 43.0916 92.4694 43.7001 93.0997C44.3085 93.73 45.0352 94.2344 45.8385 94.5839C46.6419 94.9334 47.5062 95.1213 48.3822 95.1367C50.1513 95.168 51.8604 94.4952 53.1334 93.2664C56.5655 90.101 60.9795 88.2087 65.6386 87.9053C70.2977 87.602 74.9198 88.906 78.7334 91.5997L61.9334 74.7997C55.1415 75.8233 48.8316 78.92 43.8667 83.6664Z" fill="#C7C7C7"/>
</svg>
